<svg xmlns="http://www.w3.org/2000/svg" xmlns:xlink="http://www.w3.org/1999/xlink" xmlns:xodm="http://www.corel.com/coreldraw/odm/2003" xml:space="preserve" version="1.1" style="shape-rendering:geometricPrecision; text-rendering:geometricPrecision; image-rendering:optimizeQuality; fill-rule:evenodd; clip-rule:evenodd" viewBox="1328.85 8290.72 19198.77 9383.38">
 <defs>
  <style type="text/css">
   <![CDATA[
    .fil0 {fill:black}
   ]]>
  </style>
 </defs>
 <g id="Capa_x0020_1">
  <metadata id="CorelCorpID_0Corel-Layer"/>
  <path class="fil0" d="M11811.95 16604.91c13.39,-128.14 -29.41,-130.88 76.33,-144.84 50.37,57.1 29.78,90.01 26.28,251.63 -4.35,202.3 28.33,737.58 -44.22,802.19 -82.01,-25.2 -54.72,-27 -55.79,-131.84 -108.88,40.17 -181.96,119.36 -326.91,119.21 -368.19,-0.33 -540.15,-346.2 -400.08,-711.82 144.3,-376.66 561.47,-383.32 724.39,-184.53zm-947.68 3.73c13.64,-115.6 7.43,-234.56 7.17,-351.23 -0.56,-237.76 -34.55,-260.89 42.15,-322.65 91.05,44.02 42.72,-57.88 60.77,104.81l-19.41 1411.66c-18.25,65.52 12.38,27.41 -41.36,62.18 -53.02,-34.18 -29.91,-20.45 -57.06,-144.44 -347.45,330.55 -954.32,18.98 -725.64,-579.44 126.65,-331.38 474.83,-404.06 733.38,-180.89zm1604.02 890.03c-42.29,-92.24 -17.74,-603.8 -24.32,-811.01 -5.37,-168.94 -12.94,-191.91 48.25,-228.74 65.2,50.34 25.7,-18.11 43.02,85.09 2.12,12.57 0.34,100.23 0.06,119.24l6.81 650.12c123.96,-119.92 169.19,-352.62 332.81,-432.62 137.16,90.96 181.4,319.45 311.29,430.02l-1.3 -671.9c-0.79,-21.67 -0.45,-99.38 4.64,-117.13 19.88,-69.15 -12.46,-28.87 44.15,-63.56 61.78,47.94 33.59,-20.59 44.58,108.2l3.45 408.58c0.62,167.81 14.12,362.68 3.05,524.92 -158.09,1.27 -336.01,-372.08 -404.18,-503.87 -69.69,54.32 -141.42,180.26 -196.9,265.58 -128.88,198.23 -89.7,235.75 -215.41,237.08zm-3422.94 -278.55c23.48,310.24 -916.97,493.84 -849.54,-240.47 68.05,-740.94 910.36,-511.52 836.63,-212.38 -185.94,67.49 -499.27,-29.41 -688.85,31.21 -96.79,209.71 -66.82,481.16 119.69,570.72 309.82,148.82 462.57,-143.86 582.07,-149.08zm6604.11 295.27c-93.08,-28.65 -62.29,-120.52 -60.23,-229.39l4.52 -574.13c-0.25,-36.67 -5.51,-115.88 -3.19,-146.31 12.86,-168.26 -19.01,-67.29 58.9,-105.2 55.71,42.03 39.33,-18.14 45.03,107.01 7.55,165.15 -2.28,897.25 -45.03,948.02zm-2176.59 0.37c-93.2,-29.84 -62.24,-120.69 -60.09,-229.76l4.38 -574.13c-2.66,-337.62 -16.44,-216.03 55.71,-251.4 57.88,42.66 49.72,-29.63 37.63,235.38 -8.93,195.94 30.79,737.76 -37.63,819.91zm1116.42 -1210.5c-0.2,-71.58 -3.65,-147.12 -3.25,-217.41 0.96,-164.95 27.54,-138.6 58.84,-153.6 63.94,47.72 41.14,11.44 45.15,129.53l-8.7 483.73c265.01,-74.21 413.07,-158.2 608.23,69.81 135.31,158.06 168.76,640.57 142.4,814.14 -12.99,85.62 9.02,67.15 -69.52,85.71 -44.92,-55.43 -23.39,-593.85 -105.77,-770.98 -110.26,-237.05 -357.28,-218.96 -571.08,-65.26 -15.39,162.39 32.49,746.04 -40.71,835.31 -76.92,-25.31 -59.74,0.73 -59.94,-110.74l4.35 -1100.24zm-115.49 914.49c14.35,165.27 -307.08,321.86 -533.59,266.82 -197.36,-47.91 -333.18,-232.04 -316.2,-486.07 45.45,-679.61 793.12,-619.78 837.16,-256.96 -123.85,-15.85 -90.82,-80.06 -230.46,-144.22 -488.28,-224.25 -747.81,732.1 -226.91,801.37 298.52,39.67 333.19,-173.23 470,-180.94zm-5258.41 296.26c-92.15,-29.1 -63.4,-120.71 -60.46,-229.7l4.41 -574.5c-3.08,-252.36 16.78,-180.86 22.43,-230.52 1.3,-11.3 5.59,-13.64 9.69,-19.72 113.4,28.9 20.71,2.57 65.23,39.33 0.45,0.36 -1.38,80.62 28.36,30.11 2.69,-4.55 8.42,11.72 13.65,16.61 207.27,-175.04 661.93,-147.94 702.75,571.22 13.87,244.37 37.4,371.29 -68.51,398.84 -64.04,-78.06 -19.35,-301.46 -27.71,-417.2 -59.61,-825.3 -616.96,-465.76 -645.83,-406.83 -39.75,163.76 43.25,717.67 -44.01,822.36zm-1865.65 -1052.94c214.31,30.71 -105.94,125.15 228.49,26.05 105.01,-31.11 221.79,-30.43 318.32,11.78 87.55,38.27 136.42,99.49 172.08,184.7 37.99,90.76 76.1,199.98 22.57,274.36 -78.57,-37.34 -27.97,14.75 -64.19,-87.09 -104.13,-292.65 -169.95,-409.09 -605.71,-207.33l-9.15 718.77c-1.19,109.02 17.65,106.47 -62.41,131.59 -72.43,-86.96 -23.84,-389.09 -23.81,-517.01l23.81 -535.82zm8297.66 -82.24c-109.78,13.11 -15.11,2.38 -55.12,-24.18 -15.73,-72.72 75.66,-148.34 106.96,-3.56 -46.02,35.6 43.62,16.33 -51.84,27.74zm-2176.51 0c-108.26,13.45 -15.59,2.12 -54.52,-23.73 -17.63,-74.75 75,-147.94 106.08,-4.01 -43.51,33.67 41.78,16.16 -51.56,27.74zm-6982.21 -444.01c184.5,27.86 -50.77,94.33 187.07,35.43 93.99,-23.28 136.19,-33.36 243.46,-33.36 483.45,0 757.75,613.39 -355.98,613.39 -22.01,152.67 -6.08,357.03 -11.25,518.37 -9.12,283.94 43.14,411.63 -63.3,445.08 -35.49,-42.86 -31.76,-7.8 -31.76,-86.31l7.83 -1267.67 23.93 -224.93zm-220.5 1736.66l148.74 0.42 9208.62 -0.08 287.02 0.28 124.84 -0.82 -0.77 -1846.38 -5266.55 0 -3731.29 0 -770.52 -0.03 -0.09 1846.61z"/>
  <path class="fil0" d="M13202.2 15140.82c90.15,74.58 240.55,81.89 343.13,-7.57 46.78,-68.2 5.23,-3145.19 37.77,-3596.77 341.26,493.51 1093.85,1457.32 1457.06,1933.14 243.86,319.45 474.35,632.04 726.99,971.64 86.48,116.22 455.65,686.05 571.76,721.17 130.43,39.44 225.83,-37.63 239.48,-153.99 13.61,-116.03 -76.7,-191.57 -134.47,-262.84 -364.8,-450.2 -928.14,-1225.5 -1295.81,-1717.56 -100.63,-134.67 -1351.95,-1824.77 -1440.91,-2014.19 218.32,-92.43 2381.95,-1821.01 2775.48,-2127.13 168.82,-131.28 117.15,-358.63 -71.79,-370.98 -113.9,-7.43 -149.61,50.2 -216.25,106.19l-2203.1 1719.77c-110.8,83.31 -282.53,231.79 -411.58,285.52l27.12 -2071.39c-92.32,-55.74 -278.97,-90.23 -369.9,-19.58 -78.2,60.8 -38.45,1155.29 -38.45,1287.11l-5.43 3539.92c0,285.08 -57.54,1636.26 8.9,1777.54z"/>
  <path class="fil0" d="M11105.38 9198.04l373.5 1574.56 -771.74 6.52 398.24 -1581.08zm-1768.4 5815.62c91.95,85.18 164.24,131.62 315.38,82.38 113.82,-68.68 873.16,-3749.03 980.45,-3946.64l942.35 -11.53c83.73,407.57 888.61,3865.88 953.42,3959.02 125.2,52.54 349.96,19.91 338.07,-145.04 -6.22,-86.05 -82.38,-345.39 -106.39,-444.09 -72.47,-297.68 -142.16,-586.31 -213.1,-888.95l-823.26 -3528.85c-60.71,-259.79 -367.34,-1646.99 -422.2,-1772.54 -103.37,-21.32 -372.88,-68.08 -427.74,54.92l-724.73 3102.92c-99.47,439.07 -833.38,3367.32 -812.25,3538.4z"/>
  <path class="fil0" d="M18770.12 9207.45l372.06 1565.65 -771.74 6.13 399.68 -1571.78zm-1763.94 5808.36c66.44,92.26 302.59,185.35 367.87,-24.3l85.35 -367.7c112.77,-487.46 761.48,-3288.75 831.54,-3474.95l948.22 -12.34c156.57,823.29 488,2082.29 701.03,2981.36 57.8,243.91 167.16,813.04 249.57,989.4 183,31.81 243.48,10.65 337.25,-93.62 24.86,-61.36 -719.2,-3105.66 -794.12,-3437.15l-701.22 -3007.29c-56.19,-242.56 -4.52,-268.77 -272.79,-269.06 -263.35,-0.28 -208.51,10.91 -264.48,253.97l-1110.4 4750.28c-56.05,249.76 -421.95,1592.13 -377.82,1711.4z"/>
  <path class="fil0" d="M1353.29 8538.94l-24.44 6588.99c179.54,136.74 1399.72,73.12 1692.59,69.81 281.2,-3.19 571.59,-11.3 860.11,-11.33 170.8,-0.03 785.83,46.19 885.81,-28.76 93.73,-70.23 81.47,-230.83 10.82,-299 -76.93,-74.18 -262.78,-58.84 -394.32,-60.4 -299.76,-3.53 -609.3,-4.2 -908.92,0.17 -591.47,8.68 -1169.95,18.68 -1764.54,18.76 -33.11,-369.88 24.75,-4331.13 29.69,-5065.04l7.8 -1079.19c1.61,-108.14 21.92,-118.59 -51.22,-157.91 -97.8,-52.55 -263.68,-25.26 -343.38,23.9z"/>
  <path class="fil0" d="M8513.6 14973.97c96.07,90.94 254.02,82.63 361.03,11.75 41.16,-244.36 35.03,-2856.12 35.03,-3320.64l19.04 -2487.52c3.22,-623.37 71.05,-673.23 -191.53,-676.51 -279.71,-3.5 -215.44,77.94 -215.44,628.65l-8.13 5844.27z"/>
  <path class="fil0" d="M5252.39 14983.77c71.22,51.05 156.28,84.53 273.46,49.64 114.89,-34.21 101.76,-135.49 101.76,-258.94l42.32 -6212.79c-67.01,-40.57 -244.37,-105.12 -359.23,-35.63 -81.45,49.27 -47.18,199.99 -47.1,388.39l-10.99 5190.33c0,225.32 -37.14,681.85 -0.22,879z"/>
  <path class="fil0" d="M5860.22 11192.65l2430.57 -21.5 3.24 -356.52c-228.06,-67.43 -2037.26,-6.89 -2423.13,-2.51l-10.68 380.53z"/>
  <path class="fil0" d="M10184.26 17118.47c27.68,206.06 204.92,339.74 449.57,270.25 282.84,-80.35 250.69,-227.67 239.06,-535.06 -16.64,-440.34 -775.11,-378.75 -688.63,264.81z"/>
  <path class="fil0" d="M11141.04 17118.47c27.71,206.09 204.78,339.66 449.54,270.25 286.38,-81.25 233.52,-226.99 228.66,-534.95 -7.01,-443.53 -764.28,-375.79 -678.2,264.7z"/>
  <path class="fil0" d="M6566.87 16096.32l-10.82 368.75c229.08,0.74 674.84,10.12 675.1,-231.87 0.31,-268.92 -460.76,-200.1 -664.28,-136.88z"/>
  <path class="fil0" d="M8424.49 16685.26l488.54 2.48 -96.22 -80.54c-139.14,-71.7 -300.28,-49.15 -392.32,78.06z"/>
 </g>
</svg>